<svg xmlns="http://www.w3.org/2000/svg" width="512" height="512"><path xmlns="http://www.w3.org/2000/svg" d="M491.023 438.648L349.81 291.332c9.046-14.215 16.336-29.527 21.296-45.602 5.575-18.074 8.399-36.91 8.399-55.98C379.504 85.125 294.379 0 189.75 0 85.125 0 0 85.125 0 189.75c0 104.629 85.125 189.754 189.75 189.754 12.45 0 24.89-1.211 36.996-3.621 9.348-1.84 15.422-10.918 13.566-20.266-1.851-9.351-10.957-15.515-20.273-13.562a156.769 156.769 0 01-30.289 2.949c-85.602 0-155.25-69.64-155.25-155.254 0-85.61 69.648-155.25 155.25-155.25 85.605 0 155.254 69.64 155.254 155.25 0 15.617-2.309 31.031-6.867 45.805-9.551 30.98-29.176 58.843-55.246 78.418-.243.183-.352.46-.582.656-.254.21-.579.277-.825.504-.668.625-.984 1.441-1.527 2.14-.695.883-1.418 1.7-1.918 2.68-.523 1.024-.793 2.082-1.098 3.176-.296 1.043-.625 2.039-.722 3.121-.094 1.105.054 2.164.168 3.273.113 1.106.187 2.168.515 3.247.328 1.074.907 2.023 1.45 3.03.41.766.574 1.614 1.113 2.333.195.265.496.379.707.629.195.23.254.527.46.75l149.138 159.87c8.406 8.403 19.457 12.618 30.5 12.618 11.046 0 22.085-4.21 30.484-12.602 8.152-8.136 12.64-18.968 12.64-30.507 0-11.528-4.488-22.344-12.37-30.243zm-24.656 36.336c-3.367 3.371-8.836 3.371-11.781.438L318.215 329.227a188.624 188.624 0 0010.285-10.254l137.867 143.816a8.588 8.588 0 012.528 6.098 8.6 8.6 0 01-2.528 6.097zm0 0" fill="#1f70d8" data-original="#000000"/><path xmlns="http://www.w3.org/2000/svg" d="M189.75 276c-9.527 0-17.25-7.715-17.25-17.25v-138c0-9.535 7.723-17.25 17.25-17.25S207 111.215 207 120.75v138c0 9.535-7.723 17.25-17.25 17.25zm0 0" fill="#1f70d8" data-original="#000000"/><path xmlns="http://www.w3.org/2000/svg" d="M258.75 207h-138c-9.527 0-17.25-7.715-17.25-17.25s7.723-17.25 17.25-17.25h138c9.527 0 17.25 7.715 17.25 17.25S268.277 207 258.75 207zm0 0" fill="#1f70d8" data-original="#000000"/></svg>